<mxfile host="65bd71144e">
    <diagram id="RKlBMdnLVNlHsbkL5HXI" name="Page-1">
        <mxGraphModel dx="2854" dy="2366" grid="1" gridSize="10" guides="1" tooltips="1" connect="1" arrows="1" fold="1" page="1" pageScale="1" pageWidth="850" pageHeight="1100" math="0" shadow="0">
            <root>
                <mxCell id="0"/>
                <mxCell id="1" parent="0"/>
                <mxCell id="4" value="" style="group" vertex="1" connectable="0" parent="1">
                    <mxGeometry x="-210" y="-1070" width="430" height="90" as="geometry"/>
                </mxCell>
                <mxCell id="3" value="" style="rounded=0;whiteSpace=wrap;html=1;strokeWidth=8;fontSize=33;" vertex="1" parent="4">
                    <mxGeometry width="430" height="90" as="geometry"/>
                </mxCell>
                <mxCell id="2" value="&lt;font style=&quot;font-size: 39px;&quot;&gt;backend api&lt;/font&gt;" style="text;html=1;strokeColor=none;fillColor=none;align=center;verticalAlign=middle;whiteSpace=wrap;rounded=0;strokeWidth=8;" vertex="1" parent="4">
                    <mxGeometry x="94" y="30" width="242.5" height="30" as="geometry"/>
                </mxCell>
                <mxCell id="8" value="tools" style="text;html=1;align=center;verticalAlign=middle;whiteSpace=wrap;rounded=0;strokeWidth=8;fontSize=39;fillColor=#e51400;strokeColor=#B20000;fontColor=#ffffff;" vertex="1" parent="1">
                    <mxGeometry x="-830" y="-910" width="420" height="80" as="geometry"/>
                </mxCell>
                <mxCell id="10" value="Express" style="rounded=0;whiteSpace=wrap;html=1;strokeWidth=8;fontSize=39;" vertex="1" parent="1">
                    <mxGeometry x="-800" y="-820" width="170" height="60" as="geometry"/>
                </mxCell>
                <mxCell id="MV1ImlWhGHKIbx40s_I_-10" value="Express" style="rounded=0;whiteSpace=wrap;html=1;strokeWidth=8;fontSize=39;" vertex="1" parent="1">
                    <mxGeometry x="-620" y="-820" width="170" height="60" as="geometry"/>
                </mxCell>
                <mxCell id="MV1ImlWhGHKIbx40s_I_-11" value="Express" style="rounded=0;whiteSpace=wrap;html=1;strokeWidth=8;fontSize=39;" vertex="1" parent="1">
                    <mxGeometry x="-800" y="-750" width="170" height="60" as="geometry"/>
                </mxCell>
                <mxCell id="MV1ImlWhGHKIbx40s_I_-12" value="Express" style="rounded=0;whiteSpace=wrap;html=1;strokeWidth=8;fontSize=39;" vertex="1" parent="1">
                    <mxGeometry x="-620" y="-750" width="170" height="60" as="geometry"/>
                </mxCell>
            </root>
        </mxGraphModel>
    </diagram>
    <diagram id="ExRAn80eEn_FO7Fd2pBc" name="Page-2">
        <mxGraphModel dx="1040" dy="633" grid="1" gridSize="10" guides="1" tooltips="1" connect="1" arrows="1" fold="1" page="1" pageScale="1" pageWidth="850" pageHeight="1100" math="0" shadow="0">
            <root>
                <mxCell id="0"/>
                <mxCell id="1" parent="0"/>
            </root>
        </mxGraphModel>
    </diagram>
</mxfile>